<svg xmlns="http://www.w3.org/2000/svg" width="35.506" height="45" viewBox="0 0 35.506 45" class="mdl-js">
  <g id="quality" transform="translate(-54.006 0.002)">
    <path id="XMLID_1656_" d="M88.843,16.415a4.235,4.235,0,0,0-1.62-6.047,2.484,2.484,0,0,1-1.337-2.315,4.235,4.235,0,0,0-4.427-4.427,2.484,2.484,0,0,1-2.315-1.337A4.235,4.235,0,0,0,73.1.668a2.484,2.484,0,0,1-2.674,0,4.235,4.235,0,0,0-6.047,1.62,2.484,2.484,0,0,1-2.315,1.337,4.235,4.235,0,0,0-4.427,4.427A2.484,2.484,0,0,1,56.3,10.367a4.235,4.235,0,0,0-1.62,6.047,2.483,2.483,0,0,1,0,2.674,4.235,4.235,0,0,0,1.62,6.047,2.484,2.484,0,0,1,1.337,2.315,4.233,4.233,0,0,0,4.341,4.429L57.6,39.461a.879.879,0,0,0,.989,1.288L63.5,39.433l1.317,4.914a.879.879,0,0,0,1.61.212l5.333-9.237,5.333,9.237a.879.879,0,0,0,1.61-.212l1.317-4.914,4.914,1.317a.879.879,0,0,0,.989-1.288L81.544,31.88a4.233,4.233,0,0,0,4.341-4.429,2.484,2.484,0,0,1,1.337-2.315,4.235,4.235,0,0,0,1.62-6.047A2.483,2.483,0,0,1,88.843,16.415ZM65.965,41.842l-1-3.713a.879.879,0,0,0-1.076-.621l-3.713,1L63.7,32.4a2.471,2.471,0,0,1,.673.812,4.234,4.234,0,0,0,5.453,1.937Zm13.66-4.335a.879.879,0,0,0-1.076.621l-1,3.713-3.862-6.69a4.234,4.234,0,0,0,5.453-1.937,2.464,2.464,0,0,1,.674-.811l3.521,6.1Zm7.739-17.47a2.477,2.477,0,0,1-.948,3.537,4.246,4.246,0,0,0-2.285,3.959,2.477,2.477,0,0,1-2.589,2.589,4.25,4.25,0,0,0-3.959,2.285,2.477,2.477,0,0,1-3.537.948,4.231,4.231,0,0,0-2.209-.666l-.033,0h-.088l-.031,0a4.231,4.231,0,0,0-2.21.666,2.477,2.477,0,0,1-3.537-.948,4.247,4.247,0,0,0-3.763-2.29q-.1,0-.2,0a2.477,2.477,0,0,1-2.589-2.589A4.247,4.247,0,0,0,57.1,23.574a2.477,2.477,0,0,1-.948-3.537,4.246,4.246,0,0,0,0-4.571,2.477,2.477,0,0,1,.948-3.537A4.246,4.246,0,0,0,59.388,7.97a2.477,2.477,0,0,1,2.589-2.589A4.248,4.248,0,0,0,65.936,3.1a2.477,2.477,0,0,1,3.537-.948,4.246,4.246,0,0,0,4.571,0h0a2.477,2.477,0,0,1,3.537.948A4.247,4.247,0,0,0,81.54,5.381,2.477,2.477,0,0,1,84.13,7.97a4.247,4.247,0,0,0,2.285,3.959,2.477,2.477,0,0,1,.948,3.537,4.246,4.246,0,0,0,0,4.571Z" transform="translate(0 0)" fill="#06b6d4"/>
    <path id="XMLID_1708_" d="M167.89,134.941a1.637,1.637,0,0,0,1.635,1.635h2.6a1.63,1.63,0,0,0,1.229-.56,6.579,6.579,0,0,0,2.659.56h4.507a2.858,2.858,0,0,0,2.855-2.855v-3.782a2.859,2.859,0,0,0-2.855-2.855h-1.131l.446-1.308a2.381,2.381,0,0,0-4.3-1.988,8.129,8.129,0,0,1-2.487,2.605,1.625,1.625,0,0,0-.924-.287h-2.6a1.637,1.637,0,0,0-1.635,1.635v7.2Zm9.157-10.253a.624.624,0,0,1,1.126.521l-.645,1.891a.879.879,0,0,0,.163,1.742h2.831a1.1,1.1,0,0,1,1.1,1.1v3.782a1.1,1.1,0,0,1-1.1,1.1h-4.507a4.823,4.823,0,0,1-2.253-.557v-6.234l.107-.068A9.9,9.9,0,0,0,177.047,124.688Zm-7.4,3.176H172v6.91h0v.043h-2.356Z" transform="translate(-103.875 -111.849)" fill="#06b6d4"/>
    <path id="XMLID_1761_" d="M121,53.985a12.879,12.879,0,0,0-5.753,1.338.879.879,0,1,0,.778,1.576A11.139,11.139,0,0,1,121,55.743a11.25,11.25,0,1,1-11.25,11.25,11.138,11.138,0,0,1,1.157-4.974.879.879,0,1,0-1.576-.778,12.88,12.88,0,0,0-1.338,5.753A13.008,13.008,0,1,0,121,53.985Z" transform="translate(-49.242 -49.242)" fill="#06b6d4"/>
    <path id="XMLID_1762_" d="M149.292,96.163a.879.879,0,1,0-.621-.258A.886.886,0,0,0,149.292,96.163Z" transform="translate(-86.109 -86.109)" fill="#06b6d4"/>
  </g>
</svg>
