<svg xmlns="http://www.w3.org/2000/svg" width="35.568" height="45.5" viewBox="0 0 35.568 45.5" class="mdl-js">
  <g id="dried-fruit" transform="translate(-56.25 0.25)">
    <path id="Path_31455" data-name="Path 31455" d="M90.964,13.594,88.272,7.636v-6.1A1.54,1.54,0,0,0,86.734,0H71.113a.659.659,0,1,0,0,1.318H86.734a.22.22,0,0,1,.22.22V4.482H61.114V1.538a.22.22,0,0,1,.22-.22h6.7a.659.659,0,0,0,0-1.318h-6.7A1.54,1.54,0,0,0,59.8,1.538v6.1L57.1,13.594a6.765,6.765,0,0,0-.6,2.8V29.286a.659.659,0,0,0,1.318,0V16.4a5.456,5.456,0,0,1,.487-2.262l2.575-5.7H78.792a.659.659,0,0,0,0-1.318H61.114V5.8h25.84V7.119H81.868a.659.659,0,0,0,0,1.318h5.32l2.575,5.7A5.456,5.456,0,0,1,90.25,16.4V43.022a.66.66,0,0,1-.659.659H58.478a.66.66,0,0,1-.659-.659V32.362a.659.659,0,1,0-1.318,0v10.66A1.98,1.98,0,0,0,58.478,45H89.591a1.98,1.98,0,0,0,1.978-1.978V16.4a6.765,6.765,0,0,0-.6-2.8Z" fill="#ec4899" stroke="#ec4899" stroke-width="0.5"/>
    <path id="Path_31456" data-name="Path 31456" d="M283.8,205.666a1.863,1.863,0,0,0,.173.249,1.863,1.863,0,0,0-.173.249,1.8,1.8,0,0,0,0,1.816l.57.987a1.8,1.8,0,0,0,1.572.908.265.265,0,0,1,.431.249,1.8,1.8,0,0,0,1.572.908h1.139a1.8,1.8,0,0,0,1.572-.908.265.265,0,0,1,.431-.249,1.8,1.8,0,0,0,1.572-.908l.57-.987a1.8,1.8,0,0,0,0-1.816,1.863,1.863,0,0,0-.173-.249,1.863,1.863,0,0,0,.173-.249,1.8,1.8,0,0,0,0-1.816l-.57-.987a1.8,1.8,0,0,0-1.572-.908.265.265,0,0,1-.431-.249,1.8,1.8,0,0,0-1.572-.908h-1.139a1.8,1.8,0,0,0-1.572.908.265.265,0,0,1-.431.249,1.8,1.8,0,0,0-1.572.908l-.57.987A1.8,1.8,0,0,0,283.8,205.666Zm1.711,2.641-.57-.987a.5.5,0,0,1,.431-.746h1.139a.5.5,0,0,1,.431.746l-.57.987a.5.5,0,0,1-.861,0Zm3-2.889a.432.432,0,0,1,.6.5.6.6,0,0,1-.905.523,1.875,1.875,0,0,0-.3-.523.432.432,0,0,1,.6-.5Zm1,4.046a.488.488,0,0,1-.431.249h-1.139a.5.5,0,0,1-.431-.746l.57-.987a.5.5,0,0,1,.861,0l.57.987A.488.488,0,0,1,289.515,209.463Zm2.573-2.143-.57.987a.5.5,0,0,1-.861,0l-.57-.987a.5.5,0,0,1,.431-.746h1.139a.5.5,0,0,1,.431.746Zm-.57-3.8.57.987a.5.5,0,0,1-.431.746h-1.139a.5.5,0,0,1-.431-.746l.57-.987a.5.5,0,0,1,.861,0Zm-4-1.156a.489.489,0,0,1,.431-.249h1.139a.5.5,0,0,1,.431.746l-.57.987a.5.5,0,0,1-.861,0l-.57-.987A.488.488,0,0,1,287.515,202.366Zm-2.573,2.143.57-.987a.5.5,0,0,1,.861,0l.57.987a.5.5,0,0,1-.431.746h-1.139a.5.5,0,0,1-.431-.746Z" transform="translate(-207.098 -183.151)" fill="#ec4899" stroke="#ec4899" stroke-width="0.5"/>
    <path id="Path_31457" data-name="Path 31457" d="M89.99,194.306a1.53,1.53,0,0,0-1.1.048,3.665,3.665,0,0,0-2.009,2.3,3.4,3.4,0,0,0,.567,3,3.5,3.5,0,0,0,2.816,1.415c.685,0,3.456.025,4.028.025a2.863,2.863,0,0,0,2.477-1.148,2.53,2.53,0,0,0,1.186.294,3.173,3.173,0,0,0,1.5-.329,12.452,12.452,0,0,0,2.172.191A12.311,12.311,0,0,0,110,196.831a.659.659,0,0,0-.894-.969,11,11,0,0,1-7.48,2.923c-.316,0-.633-.014-.947-.041a9,9,0,0,0,1.707-4.831A3.583,3.583,0,0,0,98.716,190a3.48,3.48,0,0,0-1.892.562,2.164,2.164,0,0,1,.566-1.61.659.659,0,1,0-.969-.894,3.483,3.483,0,0,0-.919,2.24,3.474,3.474,0,0,0-1.4-.3,3.648,3.648,0,0,0-2.9,1.362,10.95,10.95,0,0,1-.6-3.611,11.155,11.155,0,0,1,.135-1.726,5.358,5.358,0,0,0,5.889-8.1,11.042,11.042,0,0,1,6.54-1.093,7.465,7.465,0,0,0,9.493,11.158,10.992,10.992,0,0,1-1.695,5.65.659.659,0,1,0,1.114.7,12.313,12.313,0,0,0,1.9-6.589c0-.23-.009-.461-.021-.691a7.466,7.466,0,0,0-9.674-11.371,12.38,12.38,0,0,0-8.535,1.2,5.359,5.359,0,1,0-6.262,8.617,12.45,12.45,0,0,0-.2,2.243,12.223,12.223,0,0,0,1.207,5.329,5.682,5.682,0,0,0-.035,1.375Zm25.17-12.836a6.152,6.152,0,1,1-6.152-6.152A6.159,6.159,0,0,1,115.16,181.471Zm-27.07-.615a4.043,4.043,0,1,1,4.043,4.043A4.048,4.048,0,0,1,88.089,180.855Zm5.945,18.913c-.068,0-3.733-.014-3.766-.016a2.178,2.178,0,0,1-2.089-2.834,2.268,2.268,0,0,1,1.239-1.357.222.222,0,0,1,.155,0h0l2.209.737-.2.557a.659.659,0,1,0,1.239.451l.215-.59,2.822.942a1.3,1.3,0,0,1,.088,1.024c-.2.591-.586,1.092-1.908,1.092Zm-2.286-5.559a2.879,2.879,0,0,1,.592-2.158,2.43,2.43,0,0,1,1.759-.729,2.167,2.167,0,0,1,1.77.92.659.659,0,0,0,1.078,0,2.167,2.167,0,0,1,1.77-.92,2.284,2.284,0,0,1,2.349,2.591,7.413,7.413,0,0,1-1.4,3.962,1.747,1.747,0,0,1-1.715,1.048,1.219,1.219,0,0,1-.668-.2,2.623,2.623,0,0,0-.472-2.015.658.658,0,0,0-.322-.234l-4.641-1.548A5.2,5.2,0,0,1,91.748,194.209Z" transform="translate(-27.59 -158.707)" fill="#ec4899" stroke="#ec4899" stroke-width="0.5"/>
    <path id="Path_31458" data-name="Path 31458" d="M130.279,259.159a.659.659,0,0,0-.659-.659h-2.461a.659.659,0,0,0,0,1.318h2.461A.659.659,0,0,0,130.279,259.159Z" transform="translate(-63.848 -235.78)" fill="#ec4899" stroke="#ec4899" stroke-width="0.5"/>
    <path id="Path_31459" data-name="Path 31459" d="M125.5,231.818a.659.659,0,0,0,0-1.318h-3.34a.659.659,0,0,0,0,1.318Z" transform="translate(-59.287 -210.241)" fill="#ec4899" stroke="#ec4899" stroke-width="0.5"/>
    <path id="Path_31460" data-name="Path 31460" d="M192.986,115.543a2.021,2.021,0,0,0,0-4.043h-8.965a2.021,2.021,0,0,0,0,4.043Zm-9.668-2.021a.7.7,0,0,1,.7-.7h8.965a.7.7,0,0,1,0,1.406h-8.965A.7.7,0,0,1,183.318,113.521Z" transform="translate(-114.47 -101.7)" fill="#ec4899" stroke="#ec4899" stroke-width="0.5"/>
  </g>
</svg>
