<svg xmlns="http://www.w3.org/2000/svg" width="48" height="45" viewBox="0 0 48 45" class="mdl-js">
  <g id="sapling_1_" data-name="sapling(1)" transform="translate(0 -15.999)">
    <path id="Path_31461" data-name="Path 31461" d="M6.737,143.386l4.513,2.256v5.046a.938.938,0,0,0,.937.938h9.937a.938.938,0,0,0,.937-.937V138.448a5.549,5.549,0,0,0-5.005-5.54c-.011,0-3.966-.621-5.8-2.455l-2.105-2.1a3.725,3.725,0,0,0-2.651-1.1v-7.5a3.75,3.75,0,0,0-7.5,0v12.735a12.189,12.189,0,0,0,6.737,10.9ZM1.875,119.75a1.875,1.875,0,1,1,3.75,0v8a3.749,3.749,0,0,0-.776,5.9l4.8,4.8a.937.937,0,0,0,1.326-1.326l-4.8-4.8a1.875,1.875,0,0,1,.7-3.094h0a1.873,1.873,0,0,1,1.95.443l2.105,2.1c2.174,2.174,6.923,2.992,6.932,2.994a3.682,3.682,0,0,1,3.324,3.675v11.3H13.125v-4.687a.937.937,0,0,0-.518-.839l-5.031-2.515a10.257,10.257,0,0,1-5.7-9.224Z" transform="translate(0 -90.626)" fill="#f97300"/>
    <path id="Path_31462" data-name="Path 31462" d="M119.125,37.562a.937.937,0,1,0,1.875,0V34.749h3.589a9.547,9.547,0,0,0,9.536-9.536V20.687a.937.937,0,0,0-1.6-.663,5.427,5.427,0,0,1-3.863,1.6A9.528,9.528,0,0,0,121,25.488V16.937a.938.938,0,0,0-1.875,0v4.8a9.528,9.528,0,0,0-7.661-3.864,5.428,5.428,0,0,1-3.863-1.6.937.937,0,0,0-1.6.663v4.526A9.547,9.547,0,0,0,115.536,31h3.589ZM128.661,23.5a7.3,7.3,0,0,0,3.589-.934v2.647a7.67,7.67,0,0,1-7.661,7.661h-1.714l5.25-3.937a.937.937,0,0,0-1.125-1.5l-6,4.5V31.16A7.67,7.67,0,0,1,128.661,23.5Zm-20.786-2.036V18.815a7.3,7.3,0,0,0,3.589.934,7.67,7.67,0,0,1,7.661,7.661v.776l-6-4.5a.937.937,0,1,0-1.125,1.5l5.25,3.937h-1.714A7.67,7.67,0,0,1,107.875,21.463Z" transform="translate(-96.062 0)" fill="#f97300"/>
    <circle id="Ellipse_287" data-name="Ellipse 287" cx="0.937" cy="0.937" r="0.937" transform="translate(42.094 49.562)" fill="#f97300"/>
    <path id="Path_31463" data-name="Path 31463" d="M285.312,116a3.754,3.754,0,0,0-3.75,3.75v7.5a3.725,3.725,0,0,0-2.651,1.1l-2.106,2.1c-1.794,1.794-5.784,2.452-5.793,2.454A5.551,5.551,0,0,0,266,138.448v12.239a.938.938,0,0,0,.938.938h9.937a.938.938,0,0,0,.938-.937v-5.046l3.068-1.534a.938.938,0,0,0-.838-1.677l-3.587,1.793a.938.938,0,0,0-.518.839v4.688h-8.062v-11.3a3.683,3.683,0,0,1,3.331-3.676c.009,0,4.634-.7,6.925-2.993l2.106-2.1a1.873,1.873,0,0,1,1.95-.443h0a1.875,1.875,0,0,1,.7,3.094l-4.8,4.8a.937.937,0,1,0,1.326,1.326l4.8-4.8a3.749,3.749,0,0,0-.776-5.9v-8a1.875,1.875,0,1,1,3.75,0v12.735a10.34,10.34,0,0,1-1.252,4.924.937.937,0,0,0,1.647.9,12.22,12.22,0,0,0,1.48-5.82V119.75A3.754,3.754,0,0,0,285.312,116Z" transform="translate(-241.063 -90.626)" fill="#f97300"/>
  </g>
</svg>
