<svg xmlns="http://www.w3.org/2000/svg" id="quality-control" width="45" height="45" viewBox="0 0 45 45" class="mdl-js">
  <g id="Group_57847" data-name="Group 57847" transform="translate(0 0)">
    <g id="Group_57846" data-name="Group 57846">
      <g id="Group_57845" data-name="Group 57845">
        <path id="Path_31442" data-name="Path 31442" d="M42.1,33.56v0A22.5,22.5,0,0,0,45,22.5c0-.635-.027-1.278-.08-1.913v0a22.5,22.5,0,0,0-44.839,0v0C.027,21.222,0,21.865,0,22.5A22.5,22.5,0,0,0,2.9,33.558h0l0,0,0,0,0,0a22.5,22.5,0,0,0,39.183,0l0,0,0,0ZM5.843,19.781a16.878,16.878,0,0,1,33.314,0ZM22.5,1.758A20.867,20.867,0,0,1,43.065,19.781h-2.13a18.636,18.636,0,0,0-36.869,0H1.935A20.867,20.867,0,0,1,22.5,1.758ZM1.78,21.539H43.22c.015.321.022.642.022.961a20.75,20.75,0,0,1-2.431,9.751H26.473a.879.879,0,1,0,0,1.758h8.361a16.858,16.858,0,0,1-24.669,0h8.361a.879.879,0,0,0,0-1.758H4.188A20.75,20.75,0,0,1,1.758,22.5c0-.319.007-.64.022-.961Zm20.72,21.7A20.8,20.8,0,0,1,5.241,34.008H7.855a18.849,18.849,0,0,0,6.176,5.087,18.615,18.615,0,0,0,16.937,0,18.85,18.85,0,0,0,6.176-5.087h2.614A20.8,20.8,0,0,1,22.5,43.242Z" transform="translate(0 0)" fill="#0077f6"/>
        <path id="Path_31443" data-name="Path 31443" d="M246.36,367.345a.879.879,0,1,0,1.027-.339A.889.889,0,0,0,246.36,367.345Z" transform="translate(-224.574 -334.705)" fill="#0077f6"/>
        <path id="Path_31444" data-name="Path 31444" d="M194.748,277.3a.878.878,0,0,0,1.134-.508l.191-.5h1.411l.189.5a.879.879,0,0,0,1.645-.621l-1.619-4.289-.009-.024a.974.974,0,0,0-.9-.606h0a.974.974,0,0,0-.9.607l-.008.02-1.634,4.289A.879.879,0,0,0,194.748,277.3Zm2.073-2.768h-.078l.039-.1Z" transform="translate(-177.115 -247.411)" fill="#0077f6"/>
        <path id="Path_31445" data-name="Path 31445" d="M265.7,277.343a3.639,3.639,0,0,0,.6.017l1.079,0a.879.879,0,0,0,0-1.758h-.005l-.639,0V272.13a.879.879,0,0,0-1.758,0v4.347A.879.879,0,0,0,265.7,277.343Z" transform="translate(-241.681 -247.411)" fill="#0077f6"/>
        <path id="Path_31446" data-name="Path 31446" d="M320.5,277.359a.879.879,0,0,0,.879-.879v-4.35a.879.879,0,0,0-1.758,0v4.35A.879.879,0,0,0,320.5,277.359Z" transform="translate(-291.534 -247.411)" fill="#0077f6"/>
        <path id="Path_31447" data-name="Path 31447" d="M409.1,274.516l0,1.96a.879.879,0,0,0,.877.881h0a.879.879,0,0,0,.879-.877l0-1.962,1.237-1.9a.879.879,0,1,0-1.473-.959l-.643.987-.653-1a.879.879,0,1,0-1.472.961Z" transform="translate(-371.876 -247.408)" fill="#0077f6"/>
        <path id="Path_31448" data-name="Path 31448" d="M134.647,276.993a2.335,2.335,0,0,0,1.274.368h0a2.448,2.448,0,0,0,1.112-.258,2.17,2.17,0,0,0,1.3-1.98v-2.99a.879.879,0,0,0-1.758,0v2.99c0,.1,0,.241-.336.411a.7.7,0,0,1-.321.071h0a.589.589,0,0,1-.33-.091c-.277-.177-.277-.284-.277-.387v-2.993a.879.879,0,0,0-1.758,0v2.993A2.134,2.134,0,0,0,134.647,276.993Z" transform="translate(-121.82 -247.411)" fill="#0077f6"/>
        <path id="Path_31449" data-name="Path 31449" d="M356.189,273.009h.317v3.471a.879.879,0,0,0,1.758,0v-3.471h.327a.879.879,0,0,0,0-1.758h-2.4a.879.879,0,0,0,0,1.758Z" transform="translate(-324.082 -247.411)" fill="#0077f6"/>
        <path id="Path_31450" data-name="Path 31450" d="M55.85,277.358a3.036,3.036,0,0,0,1.469-.377l.1.1a.879.879,0,0,0,1.243-1.243l-.112-.112a3.054,3.054,0,1,0-2.7,1.63Zm0-4.35a1.3,1.3,0,0,1,1.3,1.3c0,.013,0,.027,0,.04a.879.879,0,0,0-1.2,1.253c-.032,0-.064,0-.1,0a1.3,1.3,0,1,1,0-2.593Z" transform="translate(-48.156 -247.41)" fill="#0077f6"/>
        <path id="Path_31451" data-name="Path 31451" d="M215.474,92.185l-1.83-.5-1.039-1.592a.879.879,0,0,0-1.472,0l-1.039,1.592-1.83.5a.879.879,0,0,0-.455,1.4L209,95.066l-.093,1.9a.879.879,0,0,0,1.191.864l1.772-.675,1.772.675a.879.879,0,0,0,1.191-.864l-.093-1.9,1.189-1.483a.879.879,0,0,0-.455-1.4Zm-2.314,2.041a.879.879,0,0,0-.192.593l.044.891-.829-.316a.879.879,0,0,0-.626,0l-.829.316.044-.891a.879.879,0,0,0-.192-.593l-.559-.7.859-.234a.879.879,0,0,0,.505-.368l.485-.744.485.744a.88.88,0,0,0,.505.368l.859.234Z" transform="translate(-189.369 -81.813)" fill="#0077f6"/>
        <path id="Path_31452" data-name="Path 31452" d="M324.064,122.524l-1.274-.347-.723-1.108a.879.879,0,0,0-1.472,0l-.723,1.108-1.274.347a.879.879,0,0,0-.455,1.4l.828,1.033-.065,1.324a.879.879,0,0,0,1.191.864l1.234-.47,1.234.47a.879.879,0,0,0,1.191-.864l-.065-1.324.828-1.033a.879.879,0,0,0-.455-1.4Zm-1.954,1.591a.88.88,0,0,0-.192.593l.015.314-.29-.111a.88.88,0,0,0-.626,0l-.29.111.015-.314a.879.879,0,0,0-.192-.593l-.2-.247.3-.083a.879.879,0,0,0,.505-.368l.17-.26.17.26a.879.879,0,0,0,.505.368l.3.083Z" transform="translate(-290.004 -110.064)" fill="#0077f6"/>
        <path id="Path_31453" data-name="Path 31453" d="M123.222,122.524l-1.274-.347-.723-1.108a.879.879,0,0,0-1.472,0l-.723,1.108-1.274.347a.879.879,0,0,0-.455,1.4l.828,1.033-.065,1.324a.879.879,0,0,0,1.191.864l1.234-.47,1.234.47a.879.879,0,0,0,1.191-.864l-.065-1.324.828-1.033a.879.879,0,0,0-.455-1.4Zm-1.953,1.591a.879.879,0,0,0-.192.593l.015.314-.29-.111a.88.88,0,0,0-.626,0l-.29.111.015-.314a.879.879,0,0,0-.192-.593l-.2-.247.3-.083a.879.879,0,0,0,.505-.368l.17-.26.17.26a.879.879,0,0,0,.505.368l.3.083Z" transform="translate(-106.814 -110.064)" fill="#0077f6"/>
      </g>
    </g>
  </g>
</svg>
